<svg width="48" height="48" viewBox="0 0 48 48" fill="none" xmlns="http://www.w3.org/2000/svg">
<path d="M40.5 13H7L3 47H44.5L40.5 13Z" fill="white"/>
<path d="M24 0C18.4961 0 14.0565 4.37372 14.0565 9.79592V11.7551H6.19492L6.10169 12.6122L2.12429 46.898L2 48H46L45.8757 46.898L41.8983 12.6122L41.8051 11.7551H33.9435V9.79592C33.9435 4.37372 29.5039 0 24 0ZM24 1.95918C28.4396 1.95918 31.9548 5.42219 31.9548 9.79592V11.7551H16.0452V9.79592C16.0452 5.42219 19.5604 1.95918 24 1.95918ZM7.99717 13.7143H14.0565V15.949C13.4622 16.2895 13.0621 16.9094 13.0621 17.6327C13.0621 18.7156 13.9516 19.5918 15.0508 19.5918C16.1501 19.5918 17.0395 18.7156 17.0395 17.6327C17.0395 16.9094 16.6395 16.2895 16.0452 15.949V13.7143H31.9548V15.949C31.3605 16.2895 30.9605 16.9094 30.9605 17.6327C30.9605 18.7156 31.8499 19.5918 32.9492 19.5918C34.0484 19.5918 34.9379 18.7156 34.9379 17.6327C34.9379 16.9094 34.5378 16.2895 33.9435 15.949V13.7143H40.0028L43.7627 46.0408H4.23729L7.99717 13.7143Z" fill="#424436"/>
</svg>
