<svg class="svg-icon" style="width: 1em; height: 1em;vertical-align: middle;fill: currentColor;overflow: hidden;" viewBox="0 0 1024 1024" version="1.1" xmlns="http://www.w3.org/2000/svg"><path d="M234.368 368.056l0.104 0.016c0.304 0 0.608-0.016 0.92-0.048 0.104-0.008 0.216-0.04 0.32-0.056 2.952-0.344 5.92-0.848 8.896-1.536l0.136-0.04a6.32 6.32 0 0 1 0.152-0.024l0.08-0.04c2.24-0.528 4.472-1.136 6.696-1.848 0 2.624 0.104 5.224 0.328 7.784 2.096 23.792 14.472 44.192 31.536 51.96a7.976 7.976 0 0 0 10.032-2.936l6.352-9.816 7.976 8.552a7.992 7.992 0 0 0 10.384 1.136c13.896-9.56 22.28-28.528 22.296-49.576 20.272 5.808 40.672 3.488 53.304-6.392a8 8 0 0 0 1.712-10.76l-5.68-8.472 9.832-2.696a8 8 0 0 0 5.736-9.256c-3.416-17.376-20.016-33.968-42.304-42.256-0.72-0.272-1.456-0.528-2.192-0.784 0.984-1.216 1.928-2.448 2.832-3.688 14.016-19.312 18.208-42.688 10.688-59.568a8 8 0 0 0-9.6-4.408l-10.84 3.24-0.28-11.312a8 8 0 0 0-7.168-7.76c-18.376-1.88-39.312 9.32-53.328 28.624a87.2 87.2 0 0 0-3.976 5.984 91.176 91.176 0 0 0-2.536-3.336c-14.728-18.536-35.2-29.528-52.056-27.944a8 8 0 0 0-7.24 8.584l0.696 9.016-8.632-2.712a7.984 7.984 0 0 0-10 5.112c-4.816 14.512-0.352 34.144 11.376 51.464-21.376 6.08-38.104 20.312-43.176 37.032a8 8 0 0 0 4.336 9.608l10.368 4.72-7.24 8.8a8 8 0 0 0 0.32 10.536c10.784 11.56 29.24 17.04 48.84 15.096z" fill="#E6E7E8" /><path d="M862.592 589.256a7.888 7.888 0 0 0 2.944-6.064l13.04-3.568c-0.952-4.84-3.328-9.72-6.728-14.36a7.92 7.92 0 0 0 2.36-7.192c-2.856-14.544-15.032-28.472-31.968-37.512 9.328-15.936 11.368-33.296 5.92-45.528l-1.6 0.48c0.8-8.52-0.184-16.704-3.312-23.736a8.016 8.016 0 0 0-9.6-4.408l-10.84 3.24-0.28-11.312a7.968 7.968 0 0 0-4.624-7.008c0.992-0.104 2-0.12 2.968-0.304a8 8 0 0 0 6.504-8.744l-1.12-10.144 9.968 2.168a7.96 7.96 0 0 0 9.368-5.552c5.016-16.992-2.024-39.376-17.936-57.032a63.672 63.672 0 0 0-1.584-1.712c1.44-0.624 2.848-1.272 4.224-1.96 21.36-10.632 35.896-29.416 37.048-47.856a8 8 0 0 0-6.472-8.352l-11.112-2.152 4.984-10.16a7.992 7.992 0 0 0-2.76-10.192c-15.392-10.2-39.144-9.928-60.512 0.688-2.128 1.056-4.224 2.216-6.296 3.472a96.88 96.88 0 0 0-0.696-4.136c-4.488-23.256-17.52-42.432-33.216-48.856a7.816 7.816 0 0 0-4.616-0.288 41.2 41.2 0 0 0 10.72-5.944 8 8 0 0 0 1.712-10.76l-5.68-8.472 9.832-2.696a8 8 0 0 0 5.744-9.256c-3.416-17.376-20.024-33.968-42.304-42.264l-2.192-0.784c0.992-1.216 1.936-2.44 2.84-3.688 14.016-19.312 18.2-42.696 10.68-59.576a8 8 0 0 0-9.592-4.408l-10.832 3.24-0.28-11.32a8.016 8.016 0 0 0-7.168-7.76c-18.392-1.864-39.312 9.328-53.328 28.632-1.392 1.92-2.72 3.912-3.968 5.984a101.072 101.072 0 0 0-2.528-3.336c-14.744-18.544-35.136-29.528-52.064-27.944a8 8 0 0 0-7.232 8.584l0.696 9.016-8.624-2.72a7.976 7.976 0 0 0-10 5.112c-4.816 14.52-0.352 34.16 11.384 51.472-21.384 6.08-38.112 20.32-43.176 37.032a7.984 7.984 0 0 0 4.344 9.6l10.368 4.72-7.248 8.8c-2.544 3.096-2.408 7.6 0.32 10.536 10.768 11.568 29.216 17.048 48.832 15.104l0.096 0.016c0.296 0 0.6-0.016 0.904-0.048l0.288-0.048c2.968-0.344 5.952-0.848 8.944-1.536l0.144-0.04 0.128-0.024 0.064-0.032c2.24-0.528 4.48-1.136 6.704-1.856-0.008 2.632 0.104 5.224 0.328 7.784 2.096 23.792 14.472 44.184 31.528 51.96a8 8 0 0 0 10.032-2.928l6.368-9.824 7.968 8.552c2.704 2.904 7.112 3.376 10.392 1.136 13.896-9.568 22.272-28.544 22.288-49.576 14.464 4.152 28.936 4.08 40.664 0.152a7.928 7.928 0 0 0-3.856 3.952l-3.544 8.312-6.392-6.4a7.984 7.984 0 0 0-11.224-0.096c-10.992 10.64-16.128 30.104-13.736 50.888-21.752-4.496-43.184 0.368-55.424 12.84a7.92 7.92 0 0 0-1.304 9.168c-0.192 0.288-0.416 0.536-0.6 0.832-9.624 16.456-22.624 35.08-38.6 50.048a82.064 82.064 0 0 0-20.736-11.344c-0.728-0.272-1.464-0.528-2.192-0.784 0.984-1.216 1.928-2.448 2.832-3.688 14.016-19.32 18.208-42.704 10.688-59.576a8.024 8.024 0 0 0-9.592-4.408l-10.84 3.24-0.28-11.32a8.016 8.016 0 0 0-7.168-7.76c-7.296-0.744-14.984 0.648-22.496 3.712-6.84-17.448-13.608-20.288-19.928-20.288h-0.456c-9.072 0.184-18.736 6.832-28.088 36.208-12.96-11.328-27.992-17.576-40.912-16.312a8 8 0 0 0-7.24 8.584l0.696 9.016-8.632-2.72a7.984 7.984 0 0 0-10 5.112c-4.816 14.512-0.352 34.152 11.376 51.472-21.376 6.08-38.104 20.312-43.184 37.024a8 8 0 0 0 4.336 9.608l10.368 4.72-7.24 8.8a8 8 0 0 0 0.32 10.536c10.76 11.568 29.216 17.048 48.824 15.104l0.104 0.016c0.304 0 0.6-0.016 0.904-0.048l0.416-0.056 0.408-0.056c2.52-0.312 5.112-0.76 7.896-1.376 0.168-0.04 0.336-0.048 0.504-0.088l0.208-0.056 0.232-0.048 0.072-0.04c2.176-0.52 4.36-1.104 6.536-1.808-0.008 2.464 0.112 4.896 0.312 7.296a2694.056 2694.056 0 0 0-4.528 51.936c-25.376 8.032-51.856 1-75.712-11.656 0.224-7.232-0.904-14.128-3.6-20.176a8 8 0 0 0-9.6-4.408l-10.84 3.24-0.28-11.312a8 8 0 0 0-7.168-7.76c-18.368-1.896-39.312 9.32-53.336 28.632-1.392 1.912-2.712 3.912-3.968 5.976a91.176 91.176 0 0 0-2.536-3.336c-14.728-18.536-35.168-29.512-52.056-27.944a8 8 0 0 0-7.24 8.584l0.696 9.016-8.632-2.72a7.992 7.992 0 0 0-10 5.112c-4.816 14.512-0.352 34.152 11.376 51.472-21.376 6.08-38.112 20.312-43.176 37.032a7.992 7.992 0 0 0 4.336 9.6l10.368 4.72-7.248 8.8a8 8 0 0 0 0.32 10.536c10.768 11.568 29.224 17.048 48.832 15.104l0.096 0.016c0.304 0 0.6-0.016 0.904-0.048l0.288-0.048c2.96-0.344 5.944-0.848 8.936-1.536l0.136-0.04 0.144-0.024 0.08-0.04c1.208-0.288 2.416-0.656 3.616-1 0.728 2.016 1.872 3.792 3.336 5.248 0.04 0.56 0.024 1.128 0.072 1.68 2.096 23.792 14.472 44.184 31.536 51.96a7.976 7.976 0 0 0 10.032-2.936l6.36-9.816 7.976 8.552a7.984 7.984 0 0 0 10.392 1.136c13.896-9.568 22.272-28.544 22.288-49.576 20.288 5.808 40.672 3.488 53.304-6.392a8 8 0 0 0 1.712-10.76l-5.68-8.472 9.84-2.696a8 8 0 0 0 5.736-9.256 38.312 38.312 0 0 0-1.768-6.056 261.136 261.136 0 0 0 11.992-8.944c6.832 3.024 13.216 5.496 19.048 7.56-14.456 7.344-25.248 18.664-29.144 31.496a8 8 0 0 0 4.336 9.6l10.368 4.72-7.248 8.792a8 8 0 0 0 0.32 10.536c7.52 8.08 18.824 13.16 31.608 14.864-3.584 78.864-5.488 153.44-6.472 203.288h-51.68a32.6 32.6 0 0 0-2.312-8.488l-41.848-94.168a29.12 29.12 0 0 0-26.736-17.48h-0.168a29.096 29.096 0 0 0-26.752 17.184l-43.152 94.272a32.336 32.336 0 0 0-2.952 13.56v21.04c0 0.84 0.24 1.6 0.48 2.36-0.24 0.76-0.48 1.52-0.48 2.36v113.688c0 0.248 0.12 0.456 0.144 0.696-0.024 0.24-0.144 0.448-0.144 0.696v31.992c0 8.256 6.712 14.968 14.968 14.968h114.48a14.984 14.984 0 0 0 14.968-14.968v-78.096h52.688v78.096c0 8.256 6.712 14.968 14.968 14.968h114.488a14.984 14.984 0 0 0 14.968-14.968v-78.096h52.68v78.096c0 8.256 6.72 14.968 14.968 14.968h114.488a14.984 14.984 0 0 0 14.968-14.968v-172.976c0-4.584-0.944-9.032-2.816-13.232l-41.84-94.168a29.12 29.12 0 0 0-26.744-17.48c-11.992-0.192-22.04 6.52-26.912 17.184l-43.152 94.272a32.536 32.536 0 0 0-2.432 8.672h-53.704a32.304 32.304 0 0 0-2.32-8.488l-7.52-16.928c-1.144-47.064-2.96-108.704-5.736-173.64 0-0.152 0.024-0.296 0.024-0.448 20.272 5.816 40.68 3.496 53.296-6.4a7.992 7.992 0 0 0 1.712-10.752l-5.68-8.472 9.84-2.696a8 8 0 0 0 5.736-9.256c-3.408-17.376-20.008-33.968-42.288-42.256a102.4 102.4 0 0 0-2.2-0.784c0.984-1.216 1.928-2.448 2.832-3.688 14.016-19.312 18.208-42.696 10.688-59.576a8.016 8.016 0 0 0-9.592-4.408l-10.84 3.24-0.272-11.312a8 8 0 0 0-7.168-7.76 44.04 44.04 0 0 0-15.248 1.304c-0.352-4.832-0.712-9.648-1.088-14.4a266.264 266.264 0 0 0 27.48-22.336c18.64 6.576 52.272 15.744 92.424 14.984a7.904 7.904 0 0 0-1.56 5.248l0.704 9.016-8.624-2.712a7.976 7.976 0 0 0-10 5.104c-4.824 14.512-0.36 34.144 11.376 51.472-21.376 6.08-38.104 20.312-43.176 37.032a8 8 0 0 0 4.344 9.608l10.368 4.72-7.24 8.792c-2.544 3.096-2.408 7.6 0.32 10.536 5.136 5.52 12.08 9.592 20.008 12.216l-1.928 2.344c9.992 10.736 29.088 15.584 49.328 11.504 3.64 20.832 15.152 38.2 30.568 45.216 0.208 0.096 0.424 0.064 0.632 0.136 4.248 5.656 9.32 10.04 14.904 12.584l10.264-15.848c1.592 1.072 3.432 1.52 5.296 1.312l11.336 12.168c12.648-8.704 20.44-27.904 18.544-49.376a75.16 75.16 0 0 0-0.68-5.432c1.792 0.816 3.6 1.568 5.416 2.248 20.208 7.52 40.528 5.792 51.912-3.112l-8.608-12.84c0.424-0.272 0.904-0.512 1.312-0.832zM762.024 460.16c-1.392 1.92-2.72 3.912-3.968 5.984-0.832-1.144-1.68-2.256-2.536-3.336a85.592 85.592 0 0 0-19.584-18.088c8.624-2.84 16.8-8.448 23.744-16.08 3.056-0.92 6.112-1.816 9.192-2.888 3.76-1.312 6.584-3.992 8.184-7.288 9.144 7.08 19.176 11.664 28.856 13.352-15.792 1.96-32.224 12.28-43.888 28.344zM649.352 370.064c3.976-6.424 7.488-13.04 10.784-19.728a73.2 73.2 0 0 0 18.752 10.68c0.064 0.024 0.104 0.088 0.176 0.112l0.28 0.088c2.784 1.064 5.664 2.008 8.632 2.776l0.12 0.024 0.088 0.032 0.104 0.016c2.24 0.576 4.52 1.072 6.84 1.472a77.672 77.672 0 0 0-8.448 26.04c-14.072-4.44-27.04-11.264-37.328-21.512z" fill="#E6E7E8" /><path d="M372.528 189.48c0.064 0.016 0.104 0.064 0.168 0.08l0.344 0.072 0.632 0.128c2.416 0.536 4.952 0.984 7.728 1.328l0.512 0.088 0.208 0.016 0.192 0.024 0.4 0.016c2.144 0.232 4.304 0.408 6.496 0.48-0.888 2.472-1.664 4.952-2.312 7.432-6.04 23.112-1.256 46.488 12.192 59.544a8 8 0 0 0 10.432 0.616l9.296-7.096 4.624 10.736a8 8 0 0 0 9.4 4.568c16.304-4.328 30.584-19.36 37.688-39.168 17.136 12.304 37.112 16.976 52.344 11.936a8 8 0 0 0 5.24-9.552l-2.496-9.888 10.168 0.776c4.184 0.304 7.896-2.648 8.52-6.784 2.64-17.512-7.408-38.72-25.592-54.032a85.064 85.064 0 0 0-1.808-1.48c1.336-0.816 2.648-1.656 3.912-2.52 19.696-13.456 31.528-34.064 30.136-52.488a8 8 0 0 0-7.552-7.384l-11.304-0.6 3.544-10.744a8 8 0 0 0-4.136-9.72c-16.648-8-40.152-4.48-59.848 8.992-1.96 1.336-3.872 2.768-5.76 4.296a89.632 89.632 0 0 0-1.264-4c-7.632-22.424-23.168-39.632-39.6-43.84a8 8 0 0 0-9.704 5.648l-2.376 8.728-7.2-5.464a8 8 0 0 0-11.136 1.448c-9.432 12.048-11.84 32.04-6.624 52.296-22.168-1.456-42.72 6.288-53.128 20.328-2.384 3.216-2.024 7.712 0.848 10.504l8.168 7.936-9.784 5.84a8 8 0 0 0-3.248 10.024c6.336 14.712 22.192 26.232 41.68 30.88z" fill="#E6E7E8" /><path d="M689.144 385.504l-19.104 10.808c-5.248-6.728-7.984-16.12-8.056-26.528-20.912-4.992-40.592-14.328-54.696-30.816a227.04 227.04 0 0 0 18.248-34.104c-3.792-4.464-6.584-9.296-7.952-14.28l15.744-6.672c0.552-1.76 1.2-3.416 1.712-5.208l-6.584-8.44a5.944 5.944 0 0 0-4.912 3.048c-18.376 31.424-49.432 71.688-91.032 80.448-8.312-81-19.496-138.944-34.488-138.64-24.136 0.496-39.336 105.792-48.88 230.616-48.12 18.896-99.736-14.056-131.592-41.384-5.656-4.856-13.616 2.408-9.352 8.52a220.416 220.416 0 0 0 46.152 48.24c-16.96 43.088-68.432 63.88-106.184 73.496-7.224 1.84-5.856 12.528 1.6 12.552 75.304 0.24 131.208-39.36 152.472-57.08a253.288 253.288 0 0 0 42.816 15.464c-6.784 111.312-9.72 227.176-10.936 292.72h1.672a39.12 39.12 0 0 1 3.536-16.216l41.824-91.384c7.688-16.792 31.584-16.656 39.088 0.216l33.688 75.8c-2.176-90.864-6.896-237.704-16.384-357.088a255.888 255.888 0 0 0 33.912-27.584c20.728 7.84 66.816 21.504 120.624 14.184l-2.936-10.688z" fill="#FA759E" /><path d="M356.936 326.904l-11.88-17.704 20.56-5.632c-2.784-14.184-17.032-28.784-37.24-36.304a88.664 88.664 0 0 0-14.472-3.984 84.72 84.72 0 0 0 11.432-12.688c12.664-17.448 16.008-37.808 9.856-51.616l-20.872 6.24-0.536-21.776c-15.04-1.568-33.352 7.92-46.024 25.368-3.88 5.344-7.16 11.36-9.72 17.584a96.16 96.16 0 0 0-9.52-14.664c-13.416-16.88-31.288-26.232-45.056-24.952l1.616 20.824-19.92-6.28c-4.352 13.12 0.712 32.64 14.128 49.528 1.28 1.608 2.632 3.176 4.032 4.712a78.104 78.104 0 0 0-8.616 1.488c-21.008 4.856-36.88 18.064-41.28 32.576l19.856 9.04-13.872 16.84c10.328 11.104 30.392 16 51.4 11.144a84.544 84.544 0 0 0 17.776-6.352c-0.936 6.4-1.184 12.952-0.624 19.272 1.888 21.48 12.912 39.016 26.888 45.384l11.928-18.424 14.968 16.056c12.648-8.704 20.44-27.896 18.544-49.376a74.6 74.6 0 0 0-0.68-5.432c1.792 0.816 3.6 1.568 5.416 2.248 20.208 7.512 40.528 5.792 51.912-3.12z m363.488-149.976l-11.88-17.704 20.56-5.632c-2.784-14.184-17.032-28.784-37.24-36.304a88.664 88.664 0 0 0-14.472-3.984 84.72 84.72 0 0 0 11.432-12.688c12.664-17.448 16.008-37.808 9.856-51.616l-20.872 6.24-0.536-21.776c-15.04-1.568-33.352 7.92-46.024 25.368-3.88 5.344-7.16 11.36-9.72 17.584a96.16 96.16 0 0 0-9.52-14.664C598.592 44.872 580.72 35.52 566.952 36.8l1.616 20.824-19.92-6.28c-4.352 13.12 0.712 32.64 14.128 49.528 1.28 1.608 2.632 3.176 4.032 4.712a78.104 78.104 0 0 0-8.616 1.488c-21.008 4.856-36.88 18.064-41.28 32.576l19.856 9.04-13.872 16.84c10.328 11.104 30.392 16 51.4 11.144a84.544 84.544 0 0 0 17.776-6.352c-0.936 6.4-1.184 12.952-0.624 19.272 1.888 21.48 12.912 39.016 26.888 45.384l11.928-18.424 14.968 16.056c12.648-8.704 20.44-27.896 18.544-49.376a74.6 74.6 0 0 0-0.68-5.432c1.792 0.816 3.6 1.568 5.416 2.248 20.2 7.52 40.52 5.792 51.912-3.12zM376.688 539.288l-11.88-17.704 20.56-5.632c-2.784-14.184-17.032-28.784-37.24-36.304a88.664 88.664 0 0 0-14.472-3.984 84.72 84.72 0 0 0 11.432-12.688c12.664-17.448 16.008-37.808 9.856-51.616l-20.864 6.24-0.536-21.776c-15.04-1.568-33.352 7.92-46.024 25.368-3.88 5.344-7.16 11.36-9.72 17.584a96.16 96.16 0 0 0-9.52-14.664c-13.416-16.88-31.288-26.232-45.056-24.952l1.616 20.824-19.92-6.28c-4.352 13.12 0.712 32.64 14.128 49.528 1.28 1.608 2.632 3.176 4.032 4.712a78.104 78.104 0 0 0-8.616 1.488c-21.008 4.856-36.88 18.064-41.28 32.576l19.856 9.04-13.872 16.84c10.328 11.104 30.392 16 51.4 11.144a84.544 84.544 0 0 0 17.776-6.352c-0.936 6.4-1.184 12.952-0.624 19.272 1.888 21.48 12.912 39.016 26.888 45.384l11.928-18.424 14.968 16.056c12.648-8.704 20.44-27.896 18.544-49.376a74.6 74.6 0 0 0-0.68-5.432c1.792 0.816 3.6 1.568 5.416 2.248 20.2 7.52 40.52 5.792 51.904-3.12z m448.976 11.672l-11.88-17.704 20.56-5.632c-2.784-14.184-17.032-28.784-37.24-36.304a88.664 88.664 0 0 0-14.472-3.984 84.72 84.72 0 0 0 11.432-12.688c12.664-17.448 16.008-37.808 9.856-51.616l-20.872 6.24-0.536-21.776c-15.04-1.568-33.352 7.92-46.024 25.368-3.88 5.344-7.16 11.36-9.72 17.584a96.16 96.16 0 0 0-9.52-14.664c-13.416-16.88-31.288-26.232-45.056-24.952l1.616 20.824-19.92-6.28c-4.352 13.12 0.712 32.64 14.128 49.528 1.28 1.608 2.632 3.176 4.032 4.712a78.104 78.104 0 0 0-8.616 1.488c-21.008 4.856-36.88 18.064-41.28 32.576l19.856 9.04-13.872 16.84c10.328 11.104 30.392 16 51.4 11.144a84.544 84.544 0 0 0 17.776-6.352c-0.936 6.4-1.184 12.952-0.624 19.272 1.888 21.48 12.912 39.016 26.888 45.384l11.928-18.424 14.968 16.056c12.648-8.704 20.44-27.896 18.544-49.376a74.6 74.6 0 0 0-0.68-5.432c1.792 0.816 3.6 1.568 5.416 2.248 20.208 7.512 40.528 5.784 51.912-3.12z m-221.128 27.112l-11.872-17.704 20.56-5.632c-2.784-14.184-17.032-28.784-37.24-36.304a88.664 88.664 0 0 0-14.472-3.984 84.72 84.72 0 0 0 11.432-12.688c12.664-17.448 16.008-37.808 9.856-51.616l-20.872 6.24-0.536-21.776c-15.04-1.568-33.352 7.92-46.024 25.368-3.88 5.344-7.16 11.36-9.72 17.584a96.16 96.16 0 0 0-9.52-14.664c-13.416-16.88-31.288-26.232-45.056-24.952l1.616 20.824-19.92-6.28c-4.352 13.12 0.712 32.64 14.128 49.528 1.28 1.608 2.632 3.176 4.032 4.712a78.104 78.104 0 0 0-8.616 1.488c-21.008 4.856-36.88 18.064-41.28 32.576l19.856 9.04-13.872 16.84c10.328 11.104 30.392 16 51.4 11.144a84.544 84.544 0 0 0 17.776-6.352c-0.936 6.4-1.184 12.952-0.624 19.272 1.888 21.48 12.912 39.016 26.888 45.384l11.928-18.424 14.968 16.056c12.648-8.704 20.44-27.896 18.544-49.376a74.6 74.6 0 0 0-0.68-5.432c1.792 0.816 3.6 1.568 5.416 2.248 20.2 7.52 40.52 5.792 51.904-3.12z m-21.472-202.96l-11.872-17.704 20.56-5.632c-2.784-14.184-17.032-28.784-37.24-36.304a88.664 88.664 0 0 0-14.472-3.984 84.72 84.72 0 0 0 11.432-12.688c12.664-17.448 16.008-37.808 9.856-51.616l-20.872 6.24-0.536-21.776c-15.04-1.568-33.352 7.92-46.024 25.368-3.88 5.344-7.16 11.36-9.72 17.584a96.16 96.16 0 0 0-9.52-14.664c-13.416-16.88-31.288-26.232-45.056-24.952l1.616 20.824-19.92-6.28c-4.352 13.12 0.712 32.64 14.128 49.528 1.28 1.608 2.632 3.176 4.032 4.712a78.104 78.104 0 0 0-8.616 1.488c-21.008 4.856-36.88 18.064-41.28 32.576l19.856 9.04-13.872 16.84c10.328 11.104 30.392 16 51.4 11.144a84.544 84.544 0 0 0 17.776-6.352c-0.936 6.4-1.184 12.952-0.624 19.272 1.888 21.48 12.912 39.016 26.888 45.384l11.928-18.424 14.968 16.056c12.648-8.704 20.44-27.896 18.544-49.376a74.6 74.6 0 0 0-0.68-5.432c1.792 0.816 3.6 1.568 5.416 2.248 20.2 7.52 40.52 5.792 51.904-3.12z m204.344 17l-2.336-21.192 20.832 4.528c4.096-13.864-1.776-33.392-16.208-49.416a87.832 87.832 0 0 0-10.992-10.224 84.544 84.544 0 0 0 16.008-5.96c19.304-9.608 31.688-26.104 32.624-41.192l-21.384-4.128 9.6-19.552c-12.6-8.352-33.232-8.416-52.536 1.184-5.912 2.944-11.608 6.76-16.752 11.088a95.512 95.512 0 0 0-1.656-17.408c-4.08-21.176-15.592-37.736-28.392-42.968l-8.208 19.208-14.752-14.784c-9.936 9.616-14.48 29.264-10.4 50.44 0.392 2.016 0.864 4.032 1.392 6.04-2.744-1.04-5.536-1.944-8.328-2.672-20.872-5.416-41.056-1.056-51.672 9.776l13.416 17.208-20.088 8.512c4.016 14.624 19.536 28.248 40.4 33.664 6.008 1.56 12.368 2.416 18.696 2.6-3.792 5.24-7.04 10.936-9.472 16.792-8.264 19.912-6.616 40.568 2.832 52.672l19.104-10.808 5.832 21.16c15.24-1.864 31.032-15.272 39.296-35.192 0.696-1.672 1.328-3.384 1.912-5.128 1.208 1.552 2.464 3.056 3.76 4.496 14.44 16.016 33.248 23.888 47.472 21.256zM488.352 200.688l-5.216-20.672 21.256 1.624c2.152-14.296-6.344-32.832-22.832-46.728-3.776-3.184-7.936-6.08-12.288-8.624 5.288-2.208 10.4-4.928 15.032-8.096 17.8-12.168 27.808-30.208 26.664-45.28l-21.744-1.152 6.832-20.688c-13.632-6.544-34.072-3.784-51.88 8.384a85.544 85.544 0 0 0-15.072 13.28 95.28 95.28 0 0 0-4.032-17.016c-6.944-20.416-20.624-35.24-34.016-38.672l-5.496 20.152-16.64-12.616c-8.52 10.888-10.32 30.976-3.376 51.392 0.664 1.944 1.408 3.872 2.208 5.792a80.6 80.6 0 0 0-8.616-1.504c-21.416-2.504-40.808 4.592-49.848 16.768l15.648 15.2-18.728 11.184c5.984 13.936 23.224 25.304 44.64 27.8 6.168 0.72 12.584 0.696 18.88 0.008a83.592 83.592 0 0 0-7.08 17.936c-5.456 20.864-0.984 41.088 10.032 51.784l17.44-13.328 8.68 20.16c14.84-3.936 28.64-19.384 34.096-40.248 0.456-1.752 0.856-3.536 1.192-5.344 1.416 1.368 2.864 2.688 4.344 3.936 16.488 13.912 36.2 19.128 49.92 14.568z" fill="#FFD7E5" /><path d="M435.792 798.304l0.008-0.032h-68.696v83.616h68.688z m197.104 0v-0.032h-68.688v83.616h68.688z" fill="#FFFFFF" /><path d="M367.104 822.272h68.688v83.616h-68.688z m197.104 0h68.688v83.616h-68.688z" fill="#0089EF" /><path d="M678.264 690.664l-41.824 91.392a39 39 0 0 0-3.544 16.248v155.208c0 11.84 9.6 21.44 21.44 21.44h85.536c11.84 0 21.44-9.6 21.44-21.44V798.08c0-5.464-1.144-10.864-3.368-15.856L717.352 690.88c-7.504-16.872-31.4-17-39.088-0.216z m-394.2 0L242.24 782.056a39 39 0 0 0-3.544 16.248v155.208c0 11.84 9.6 21.44 21.44 21.44h85.536c11.84 0 21.44-9.6 21.44-21.44V798.08c0-5.464-1.144-10.864-3.368-15.856L323.144 690.88c-7.496-16.872-31.4-17-39.08-0.216z m197.096 0l-41.824 91.392a39 39 0 0 0-3.544 16.248v155.208c0 11.84 9.6 21.44 21.44 21.44h85.536c11.84 0 21.44-9.6 21.44-21.44V798.08c0-5.464-1.144-10.864-3.368-15.856L520.248 690.88c-7.496-16.872-31.4-17-39.088-0.216z" fill="#6DC9F7" /><path d="M678.264 690.664l-41.824 91.392a39 39 0 0 0-3.544 16.248v155.208c0 11.84 9.6 21.44 21.44 21.44h85.536c11.84 0 21.44-9.6 21.44-21.44V798.08c0-5.464-1.144-10.864-3.368-15.856L717.352 690.88c-7.504-16.872-31.4-17-39.088-0.216z" fill="#6DC9F7" /><path d="M202.392 336.056l0.088 0.016c0.304 0 0.6-0.016 0.904-0.048l0.272-0.048c2.968-0.344 5.96-0.848 8.952-1.536l0.136-0.04 0.144-0.024 0.08-0.04c2.232-0.528 4.472-1.128 6.696-1.848 0 2.624 0.104 5.224 0.328 7.784 2.096 23.792 14.472 44.192 31.536 51.96a7.976 7.976 0 0 0 10.032-2.936l6.352-9.816 7.976 8.552a7.992 7.992 0 0 0 10.384 1.136c13.896-9.568 22.28-28.536 22.296-49.576 20.28 5.824 40.672 3.488 53.304-6.392a8 8 0 0 0 1.712-10.76l-5.68-8.472 9.832-2.696a8 8 0 0 0 5.736-9.256c-3.416-17.376-20.016-33.968-42.304-42.256-0.72-0.272-1.456-0.528-2.192-0.784 0.992-1.216 1.936-2.448 2.84-3.688 14.008-19.32 18.208-42.696 10.688-59.576a8.016 8.016 0 0 0-9.6-4.408l-10.84 3.24-0.28-11.32a8 8 0 0 0-7.168-7.76c-18.368-1.88-39.312 9.32-53.328 28.632a87.2 87.2 0 0 0-3.976 5.984 91.176 91.176 0 0 0-2.536-3.336c-14.728-18.536-35.168-29.576-52.056-27.944a8 8 0 0 0-7.24 8.584l0.696 9.016-8.624-2.712a7.984 7.984 0 0 0-10 5.104c-4.824 14.52-0.36 34.152 11.376 51.472-21.376 6.08-38.104 20.312-43.176 37.032a8 8 0 0 0 4.336 9.608l10.368 4.72-7.24 8.8a8 8 0 0 0 0.32 10.536c10.776 11.56 29.24 17.048 48.856 15.096z m-31.744-21.616l6.936-8.424 13.624-2.448a8.008 8.008 0 0 0-2.824-15.752l-14.056 2.52-10.336-4.704c5.92-9.504 18.12-17.48 32.52-20.808 1.96-0.456 3.984-0.744 6-1.032l12.184 4.64a8.008 8.008 0 0 0 5.696-14.96l-12.328-4.672c-0.856-0.968-1.72-1.936-2.512-2.928-9.84-12.384-13.84-24.84-13.904-34.12l8.136 2.56 6.656 11.112a8 8 0 0 0 13.728-8.224l-7.248-12.104-0.752-9.656c9.024 2.168 20.256 8.872 30.096 21.256 2.92 3.672 5.576 7.792 7.984 12.184l1.48 15.784a8 8 0 1 0 15.928-1.488l-1.44-15.36a76.416 76.416 0 0 1 8.032-14.312c8.672-11.952 20.728-20.088 31.744-21.872l0.272 11.032-8.464 11.44a7.992 7.992 0 0 0 6.424 12.752c2.456 0 4.872-1.12 6.44-3.24l8.512-11.504 10.656-3.176c1.712 11.024-2.28 25-10.952 36.96-2.64 3.632-5.792 7.112-9.288 10.416l-12.808 4.368a8 8 0 1 0 5.16 15.144l12.416-4.232c3.928 0.832 7.728 1.864 11.248 3.176 13.592 5.064 24.608 13.928 29.624 23.36l-9.664 2.648-12.624-5.088a7.992 7.992 0 1 0-5.984 14.832l12.84 5.176 5.72 8.528c-9.968 3.864-24.104 3.36-37.688-1.704-1.008-0.376-2-0.816-3-1.24l-9.064-12.888a8 8 0 1 0-13.088 9.2l9.256 13.16c0.144 1.056 0.304 2.104 0.392 3.152 1.304 14.792-2.64 28.928-10.056 37.504l-7.536-8.08-0.152-10.296c-0.064-4.416-3.824-7.704-8.12-7.88a8 8 0 0 0-7.88 8.12l0.16 10.944-6.36 9.824c-8.8-7.152-15.152-20.384-16.448-35.176a74.752 74.752 0 0 1 0.408-15.592l9.776-13.176a8 8 0 1 0-12.856-9.528l-9.808 13.224a76.4 76.4 0 0 1-14.448 5.064h-0.008a64.24 64.24 0 0 1-6.576 1.128c-12.112 1.512-23.728-0.512-31.776-5.544z" fill="#3A2C60" /><path d="M842.208 526.08c-3.416-17.376-20.016-33.968-42.296-42.264l-2.192-0.784c0.984-1.216 1.928-2.448 2.832-3.688 14.016-19.32 18.208-42.696 10.688-59.576a8 8 0 0 0-9.592-4.408l-10.84 3.24-0.28-11.32a7.96 7.96 0 0 0-4.632-7.008c0.992-0.104 2.008-0.12 2.976-0.304a8 8 0 0 0 6.504-8.744l-1.12-10.136 9.968 2.168a7.984 7.984 0 0 0 9.368-5.552c5.016-16.992-2.024-39.376-17.936-57.04a63.056 63.056 0 0 0-1.576-1.704c1.44-0.624 2.84-1.272 4.216-1.96 21.36-10.632 35.896-29.416 37.048-47.864a7.992 7.992 0 0 0-6.472-8.352l-11.112-2.144 4.984-10.16a7.992 7.992 0 0 0-2.76-10.192c-15.392-10.192-39.144-9.936-60.512 0.688-2.128 1.056-4.224 2.216-6.296 3.472a96.88 96.88 0 0 0-0.696-4.136c-4.488-23.264-17.52-42.44-33.216-48.864a7.888 7.888 0 0 0-4.64-0.272c3.976-1.512 7.6-3.504 10.744-5.952a8 8 0 0 0 1.712-10.76l-5.68-8.472 9.832-2.696a8 8 0 0 0 5.744-9.256c-3.416-17.376-20.024-33.968-42.304-42.264l-2.192-0.784c0.992-1.216 1.936-2.448 2.84-3.688 14.008-19.312 18.2-42.696 10.68-59.576a8.024 8.024 0 0 0-9.592-4.408l-10.832 3.24-0.28-11.312a8.016 8.016 0 0 0-7.168-7.76c-18.352-1.896-39.312 9.32-53.328 28.624-1.392 1.92-2.712 3.912-3.968 5.984a101.072 101.072 0 0 0-2.528-3.336c-14.752-18.544-35.256-29.52-52.064-27.936a8 8 0 0 0-7.232 8.584l0.696 9.016-8.624-2.72a7.984 7.984 0 0 0-10 5.112c-4.816 14.52-0.352 34.16 11.384 51.472-21.376 6.08-38.104 20.312-43.184 37.024a8 8 0 0 0 4.336 9.608l10.368 4.72-7.24 8.8a8 8 0 0 0 0.32 10.536c10.76 11.568 29.2 17.048 48.824 15.104l0.104 0.016c0.296 0 0.6-0.016 0.904-0.048l0.432-0.064 0.32-0.048a73.968 73.968 0 0 0 8.12-1.416v-0.008c0.12-0.024 0.232-0.032 0.352-0.064 2.352-0.544 4.704-1.192 7.048-1.952-0.008 2.632 0.104 5.224 0.328 7.784 2.096 23.792 14.48 44.184 31.536 51.96a8 8 0 0 0 10.024-2.928l6.368-9.816 7.968 8.552a8 8 0 0 0 10.392 1.136c13.896-9.568 22.272-28.544 22.288-49.576 14.48 4.16 28.96 4.08 40.68 0.152a7.864 7.864 0 0 0-3.872 3.952l-3.544 8.32-6.392-6.4a8 8 0 0 0-11.224-0.096c-10.992 10.64-16.128 30.104-13.736 50.888-21.792-4.504-43.168 0.36-55.416 12.84a7.92 7.92 0 0 0-1.296 9.192c-0.192 0.288-0.44 0.512-0.616 0.816-9.624 16.456-22.624 35.08-38.6 50.048a82.008 82.008 0 0 0-22.928-12.128c0.984-1.216 1.928-2.448 2.832-3.688 14.016-19.312 18.208-42.696 10.688-59.576a8 8 0 0 0-9.592-4.408l-10.84 3.24-0.28-11.312a8.016 8.016 0 0 0-7.168-7.76c-7.296-0.752-14.984 0.632-22.496 3.704-6.84-17.44-13.608-20.28-19.928-20.28h-0.456c-9.072 0.184-18.736 6.832-28.096 36.216-12.96-11.304-27.984-17.528-40.912-16.312a8 8 0 0 0-7.232 8.584l0.696 9.016-8.632-2.72a7.984 7.984 0 0 0-10 5.112c-4.816 14.512-0.352 34.152 11.376 51.472-21.376 6.08-38.112 20.312-43.176 37.024a8 8 0 0 0 4.336 9.608l10.368 4.72-7.248 8.792a8 8 0 0 0 0.32 10.536c10.768 11.568 29.232 17.064 48.848 15.112l0.08 0.016c0.304 0 0.6-0.016 0.904-0.048l0.36-0.048 0.56-0.08a74.08 74.08 0 0 0 7.96-1.392v-0.008c0.112-0.024 0.232-0.032 0.344-0.064 2.352-0.544 4.704-1.192 7.056-1.952-0.008 2.632 0.104 5.224 0.328 7.784-0.016-0.16-0.008-0.328-0.024-0.488a2694.056 2694.056 0 0 0-4.528 51.936c-25.392 8.024-51.856 0.952-75.712-11.704 0.216-7.208-0.912-14.088-3.6-20.12a8 8 0 0 0-9.6-4.408l-10.84 3.24-0.28-11.32a8 8 0 0 0-7.168-7.76c-18.408-1.904-39.312 9.32-53.328 28.624a87.2 87.2 0 0 0-3.976 5.984 91.176 91.176 0 0 0-2.536-3.336c-14.736-18.544-35.152-29.52-52.056-27.936a8 8 0 0 0-7.232 8.584l0.696 9.016-8.632-2.72a7.984 7.984 0 0 0-10 5.112c-4.816 14.512-0.352 34.152 11.376 51.472-21.376 6.08-38.112 20.312-43.176 37.024a8 8 0 0 0 4.336 9.608l10.368 4.72-7.248 8.8a8 8 0 0 0 0.32 10.536c10.76 11.568 29.232 17.056 48.84 15.104l0.088 0.016c0.304 0 0.6-0.016 0.904-0.048l0.264-0.048c2.968-0.344 5.96-0.848 8.952-1.536l0.136-0.04 0.144-0.024 0.08-0.04c1.256-0.296 2.504-0.68 3.76-1.04 0.736 2.008 1.728 3.864 3.2 5.312 0.04 0.544 0.024 1.112 0.072 1.656 2.096 23.8 14.472 44.192 31.536 51.96a8 8 0 0 0 10.032-2.936l6.36-9.816 7.976 8.552a7.992 7.992 0 0 0 10.384 1.136c13.896-9.568 22.272-28.528 22.288-49.576 20.296 5.808 40.672 3.488 53.304-6.392a8 8 0 0 0 1.712-10.76l-5.68-8.472 9.832-2.696a8 8 0 0 0 5.736-9.256 38.496 38.496 0 0 0-1.768-6.072 253.856 253.856 0 0 0 12-8.928c6.888 3.04 13.24 5.488 19.08 7.544-14.472 7.344-25.28 18.672-29.168 31.512a7.992 7.992 0 0 0 4.336 9.6l10.368 4.72-7.248 8.8a8 8 0 0 0 0.32 10.536c7.52 8.08 18.824 13.144 31.616 14.848-3.584 78.864-5.504 153.464-6.48 203.296h-51.68a32.744 32.744 0 0 0-2.312-8.496l-41.848-94.16a29.12 29.12 0 0 0-26.736-17.48h-0.168a29.096 29.096 0 0 0-26.752 17.184l-43.152 94.272a32.336 32.336 0 0 0-2.952 13.56v21.04a8 8 0 0 0 16 0v-21.04c0-2.4 0.504-4.72 1.504-6.896l43.152-94.272a13.12 13.12 0 0 1 12.2-7.84h0.08c5.432 0.024 10 3.008 12.2 7.976l41.848 94.152c0.952 2.144 1.432 4.408 1.432 6.744v171.944H246.696v-30.96a8 8 0 0 0-16 0v31.992c0 8.256 6.712 14.968 14.968 14.968h114.48a14.984 14.984 0 0 0 14.968-14.968v-78.096h52.688v78.096c0 8.256 6.712 14.968 14.968 14.968h114.48a14.984 14.984 0 0 0 14.968-14.968v-78.096h52.688v78.096c0 8.256 6.712 14.968 14.96 14.968h114.488a14.984 14.984 0 0 0 14.968-14.968V795.008c0-4.584-0.944-9.032-2.816-13.232l-41.84-94.16a29.12 29.12 0 0 0-26.744-17.48h-0.168a29.096 29.096 0 0 0-26.752 17.184l-43.152 94.272a32.064 32.064 0 0 0-2.432 8.672h-53.704a32.36 32.36 0 0 0-2.32-8.496l-7.52-16.92c-1.144-47.048-2.968-108.696-5.736-173.584l0.024-0.504c20.256 5.8 40.664 3.496 53.296-6.392a8 8 0 0 0 1.712-10.76l-5.68-8.472 9.832-2.696a8 8 0 0 0 5.744-9.256c-3.408-17.376-20.008-33.968-42.296-42.264l-2.192-0.784c0.984-1.216 1.928-2.44 2.832-3.688 14.016-19.304 18.216-42.688 10.688-59.576a8.016 8.016 0 0 0-9.592-4.408l-10.84 3.24-0.272-11.312a8 8 0 0 0-7.168-7.76 44.144 44.144 0 0 0-15.264 1.32c-0.352-4.824-0.704-9.672-1.072-14.408a267.088 267.088 0 0 0 27.488-22.336c18.632 6.584 52.256 15.752 92.424 14.968a7.92 7.92 0 0 0-1.568 5.264l0.704 9.008-8.624-2.712a7.976 7.976 0 0 0-10 5.104c-4.824 14.512-0.36 34.152 11.376 51.472-21.376 6.088-38.104 20.312-43.176 37.032a8 8 0 0 0 4.344 9.608l10.368 4.72-7.24 8.792c-2.544 3.096-2.408 7.6 0.32 10.536 10.768 11.576 29.224 17.072 48.848 15.104l0.08 0.016c0.296 0 0.6-0.016 0.904-0.048l0.256-0.048c2.968-0.344 5.96-0.848 8.952-1.544l0.136-0.04 0.144-0.024c0.032-0.008 0.048-0.032 0.072-0.04 2.24-0.528 4.472-1.128 6.704-1.848-0.008 2.624 0.104 5.216 0.328 7.784 2.096 23.8 14.48 44.192 31.536 51.96a8 8 0 0 0 10.032-2.936l6.352-9.816 7.976 8.552c2.704 2.904 7.112 3.376 10.392 1.136 13.888-9.568 22.264-28.528 22.288-49.576 20.264 5.8 40.672 3.496 53.296-6.392a8 8 0 0 0 1.712-10.76l-5.68-8.472 9.832-2.696a7.96 7.96 0 0 0 5.744-9.232zM671.288 172.544c-1-0.376-1.992-0.816-2.984-1.24l-9.056-12.888a8.008 8.008 0 0 0-13.096 9.2l9.256 13.16c0.144 1.048 0.304 2.096 0.392 3.144 1.304 14.792-2.632 28.936-10.056 37.504l-7.528-8.08-0.16-10.296a8 8 0 0 0-8-7.88h-0.128a8 8 0 0 0-7.872 8.12l0.168 10.944-6.368 9.824c-8.8-7.144-15.144-20.376-16.448-35.168a74.896 74.896 0 0 1 0.408-15.6l9.776-13.176a8 8 0 0 0-12.84-9.528l-9.808 13.224a75.656 75.656 0 0 1-14.448 5.064 64.24 64.24 0 0 1-6.576 1.128c-12.12 1.512-23.744-0.504-31.784-5.536l6.944-8.424 13.616-2.448a8.008 8.008 0 0 0-2.824-15.752l-14.056 2.52-10.328-4.704c5.92-9.504 18.12-17.472 32.52-20.808 1.96-0.456 3.976-0.744 5.992-1.032l12.192 4.64a8.024 8.024 0 0 0 10.32-4.632 8.016 8.016 0 0 0-4.632-10.328l-12.32-4.688c-0.856-0.968-1.72-1.928-2.512-2.936-9.84-12.384-13.84-24.84-13.912-34.12l8.136 2.568 6.656 11.112a8 8 0 1 0 13.72-8.224L576.4 55.12l-0.744-9.664c9.016 2.16 20.248 8.864 30.096 21.248 2.92 3.68 5.576 7.8 7.984 12.184l1.48 15.792a8 8 0 0 0 15.936-1.488l-1.44-15.368a76.32 76.32 0 0 1 8.024-14.304c8.672-11.952 20.728-20.08 31.752-21.864l0.272 11.032-8.464 11.44a7.992 7.992 0 0 0 6.424 12.752 8 8 0 0 0 6.44-3.24l8.52-11.512 10.648-3.184c1.72 11.024-2.272 25.008-10.944 36.96-2.648 3.64-5.808 7.12-9.296 10.424l-12.808 4.368a7.992 7.992 0 1 0 5.152 15.144l12.416-4.232c3.928 0.832 7.728 1.864 11.248 3.176 13.584 5.056 24.608 13.928 29.624 23.36l-9.68 2.656-12.624-5.088a8 8 0 1 0-5.984 14.832l12.848 5.184 5.72 8.528c-9.976 3.856-24.104 3.36-37.712-1.712z m-30.392 622.608c0-2.4 0.504-4.72 1.504-6.896l43.152-94.272a13.12 13.12 0 0 1 12.2-7.84h0.08c5.44 0.024 10 3.008 12.2 7.976l41.84 94.16c0.952 2.144 1.44 4.408 1.44 6.736v171.944H640.896V795.152zM730.024 428.16c-1.392 1.92-2.72 3.912-3.968 5.984-0.832-1.144-1.68-2.256-2.536-3.336a85.672 85.672 0 0 0-19.6-18.088c8.64-2.848 16.832-8.464 23.784-16.128 3.048-0.912 6.088-1.784 9.152-2.848 3.76-1.312 6.592-3.984 8.184-7.288 9.152 7.088 19.192 11.672 28.888 13.36-15.776 1.96-32.24 12.272-43.904 28.344zM617.352 338.064c3.976-6.432 7.48-13.048 10.768-19.744a73.36 73.36 0 0 0 18.76 10.688c0.072 0.032 0.112 0.096 0.184 0.12 0.096 0.04 0.208 0.056 0.296 0.096 2.784 1.064 5.656 2 8.616 2.768l0.12 0.024 0.088 0.032 0.104 0.016c2.24 0.576 4.52 1.072 6.84 1.472a78 78 0 0 0-8.432 25.896c-14.064-4.44-27.072-11.136-37.344-21.368z m56.568-75.216c1.944 0.504 3.872 1.176 5.792 1.856l8.656 9.76a7.968 7.968 0 0 0 11.288 0.672 8 8 0 0 0 0.68-11.296l-8.752-9.864c-0.304-1.256-0.624-2.512-0.872-3.76-2.992-15.536-0.776-28.432 3.464-36.68l6.032 6.04 0.76 12.928a8 8 0 0 0 7.976 7.528c0.16 0 0.32 0 0.48-0.016a7.984 7.984 0 0 0 7.512-8.456l-0.824-14.08 3.8-8.912c7 6.088 13.84 17.232 16.832 32.768 0.888 4.624 1.336 9.512 1.448 14.504l-5.992 14.68a8 8 0 1 0 14.816 6.048l5.824-14.28a76.336 76.336 0 0 1 13.744-8.976c13.224-6.576 27.68-8.192 38.256-4.696l-4.856 9.904-12.808 6.224a8 8 0 0 0 7 14.384l12.872-6.256 10.912 2.104c-3.584 10.568-13.592 21.112-26.816 27.696a75.36 75.36 0 0 1-13.056 4.928l-13.376-2.056a8 8 0 0 0-2.44 15.808l12.96 1.992a80 80 0 0 1 8.504 8.024c9.704 10.768 15.368 23.728 15.448 34.416l-9.8-2.128-8.832-10.352a7.992 7.992 0 1 0-12.168 10.384l8.984 10.536 1.128 10.2c-10.624-1.184-22.92-8.168-32.616-18.936-0.72-0.8-1.4-1.656-2.096-2.504l-2.072-15.624a8 8 0 1 0-15.856 2.104l2.112 15.944c-0.36 1-0.704 2.008-1.112 2.984-5.688 13.712-15.728 24.424-26.264 28.592l-2.936-10.656 4.624-9.2a8 8 0 0 0-14.296-7.192l-4.92 9.784-10.184 5.76c-4.496-10.408-3.992-25.08 1.704-38.8a74.192 74.192 0 0 1 7.576-13.632l14.76-7.152a8 8 0 0 0-6.968-14.4l-14.824 7.184a75.696 75.696 0 0 1-15.136-2.192h-0.008a64.544 64.544 0 0 1-6.376-2.048c-11.432-4.272-20.784-11.44-25.592-19.616l10.056-4.256 13.2 4.136a8 8 0 0 0 4.784-15.272l-13.616-4.264-6.992-8.96c9.672-5.664 24.184-7.08 38.472-3.36z m-89.632 61.752c0-0.008-0.008-0.008 0 0-0.008-0.008 0-0.008 0 0zM480.912 254.96c0.488 0.616 0.952 1.256 1.432 1.88 7.624-28.904 13.704-33.056 15.408-33.632 1.144 0.864 3.48 3.608 6.536 12.12a78.496 78.496 0 0 0-16.864 16.992c-1.392 1.912-2.712 3.912-3.968 5.976a91.32 91.32 0 0 0-2.544-3.336z m-45.776 112.104a66.352 66.352 0 0 1-6.568 1.128c-12.128 1.52-23.752-0.504-31.8-5.544l6.936-8.424 13.624-2.448a8 8 0 1 0-2.824-15.752l-14.056 2.52-10.336-4.704c5.92-9.504 18.12-17.472 32.528-20.808 1.952-0.456 3.976-0.744 5.992-1.032l12.192 4.648a8.016 8.016 0 0 0 10.328-4.632 8 8 0 0 0-4.632-10.328l-12.328-4.696c-0.848-0.968-1.712-1.928-2.512-2.928-9.84-12.384-13.84-24.84-13.904-34.12l8.136 2.56 6.656 11.112a8 8 0 0 0 13.728-8.224l-7.248-12.104-0.752-9.656c9.016 2.16 20.248 8.864 30.096 21.256 2.912 3.656 5.568 7.776 7.984 12.184l1.488 15.792a8 8 0 0 0 15.936-1.496l-1.44-15.352a76.4 76.4 0 0 1 8.024-14.32c8.68-11.952 20.736-20.08 31.752-21.864l0.272 11.032-8.464 11.44a7.992 7.992 0 0 0 6.424 12.752 8 8 0 0 0 6.44-3.24l8.512-11.512 10.656-3.184c1.712 11.024-2.28 25.008-10.96 36.968-2.64 3.632-5.792 7.112-9.28 10.408l-12.816 4.368a8 8 0 0 0 5.16 15.144l12.4-4.232a79.84 79.84 0 0 1 11.256 3.168c13.584 5.064 24.6 13.928 29.616 23.36l-9.672 2.648-12.624-5.088a8 8 0 1 0-5.984 14.832l12.848 5.184 5.72 8.528c-9.952 3.864-24.08 3.36-37.696-1.704-1-0.368-1.992-0.816-2.984-1.24l-9.072-12.888a8 8 0 0 0-13.088 9.2l9.256 13.16c0.144 1.056 0.304 2.112 0.392 3.152 1.304 14.792-2.64 28.928-10.056 37.504l-7.536-8.08-0.16-10.296a8 8 0 0 0-8-7.88h-0.128a8 8 0 0 0-7.88 8.12l0.168 10.944-6.36 9.824c-8.8-7.144-15.144-20.376-16.448-35.176a74.8 74.8 0 0 1 0.408-15.592l9.776-13.176a8 8 0 1 0-12.856-9.528l-9.808 13.224a74.36 74.36 0 0 1-14.432 5.088z m15.616 41.672c-0.176-0.464-0.36-0.912-0.528-1.376 0.168 0.472 0.36 0.92 0.528 1.376z m3.584 8.056l-0.296-0.56 0.296 0.56z m4.088 13.416l0.488-5.944c1.88 2.632 3.896 5.08 6.104 7.256a44.688 44.688 0 0 0-6.592-1.312z m-10.336-30.224c-0.16-0.656-0.36-1.28-0.504-1.944 0.144 0.664 0.344 1.288 0.504 1.944zM365.304 513.152l-12.624-5.088a8 8 0 1 0-5.984 14.832l12.84 5.176 5.72 8.528c-9.952 3.864-24.096 3.36-37.696-1.704-1.008-0.376-2-0.816-2.992-1.24l-9.064-12.88a8 8 0 1 0-13.088 9.2l9.256 13.16c0.144 1.048 0.304 2.104 0.392 3.152 1.304 14.8-2.64 28.936-10.056 37.512l-7.536-8.088-0.16-10.296a8.152 8.152 0 0 0-8.12-7.88 8 8 0 0 0-7.88 8.12l0.168 10.944-6.368 9.824c-8.8-7.144-15.144-20.376-16.448-35.168a74.752 74.752 0 0 1 0.408-15.592l9.776-13.176a8 8 0 1 0-12.856-9.528L243.2 526.176a76.4 76.4 0 0 1-14.448 5.064h-0.008a63.648 63.648 0 0 1-6.544 1.128c-12.136 1.52-23.76-0.504-31.808-5.536l6.936-8.424 13.624-2.448a8.008 8.008 0 0 0-2.824-15.752l-14.056 2.52-10.336-4.704c5.92-9.504 18.12-17.472 32.528-20.808 1.952-0.456 3.968-0.744 5.984-1.032l12.192 4.64a8.008 8.008 0 0 0 5.696-14.96l-12.328-4.696c-0.856-0.968-1.712-1.936-2.512-2.928-9.84-12.384-13.84-24.84-13.904-34.12l8.136 2.56 6.656 11.112a8 8 0 0 0 13.728-8.224l-7.248-12.104-0.752-9.656c9.016 2.16 20.248 8.864 30.096 21.256 2.912 3.664 5.568 7.792 7.984 12.184l1.48 15.792a8 8 0 1 0 15.928-1.488l-1.44-15.36a76.912 76.912 0 0 1 8.024-14.32c8.672-11.952 20.728-20.08 31.744-21.864l0.272 11.032-8.464 11.44a7.992 7.992 0 0 0 6.424 12.752c2.456 0 4.872-1.12 6.44-3.24l8.512-11.512 10.648-3.176c1.712 11.024-2.28 25.008-10.952 36.96-2.64 3.632-5.792 7.112-9.288 10.416l-12.808 4.368a8 8 0 0 0 5.16 15.144l12.408-4.232c3.928 0.832 7.72 1.864 11.248 3.176 13.592 5.064 24.608 13.928 29.624 23.36l-9.648 2.656z m31.824-29.216c-3.544 2.952-8.208 6.608-13.832 10.608-6.528-7.992-15.736-14.936-26.632-19.92 1.904-3.392 3.68-6.88 5.136-10.584a7.992 7.992 0 0 0-2.552-9.256l-0.096-0.08a73.6 73.6 0 0 0 3.944-9.944c18.992 9.368 39.552 15.336 60.384 14.344-0.808 10.512 2.072 22.504 8.168 34.064a250.144 250.144 0 0 1-26.04-10.344 7.96 7.96 0 0 0-8.48 1.112z m-22.024 389.952v-67.624h52.688v67.624h-52.688z m181.112 93.064H443.792V795.152c0-2.36 0.52-4.744 1.504-6.896l43.144-94.272a13.12 13.12 0 0 1 12.208-7.84h0.08a13.12 13.12 0 0 1 12.2 7.976l41.84 94.16c0.952 2.144 1.44 4.408 1.44 6.736v171.936z m16-93.064v-67.624h52.688v67.624h-52.688z m-27.344-147.304l-17.32-38.968a29.12 29.12 0 0 0-26.728-17.48h-0.168a29.096 29.096 0 0 0-26.752 17.184l-30.832 67.368c1.104-46.656 2.888-105.744 5.696-167.392 0.4-0.032 0.8-0.04 1.2-0.08 0.04 0 0.072 0.024 0.112 0.024 0.304 0 0.608-0.016 0.92-0.048 0.104-0.008 0.224-0.048 0.328-0.056 2.944-0.344 5.912-0.848 8.88-1.536l0.136-0.04a6.32 6.32 0 0 1 0.152-0.024l0.08-0.04c2.24-0.528 4.472-1.136 6.696-1.848 0 2.624 0.104 5.224 0.328 7.784 2.096 23.792 14.472 44.184 31.536 51.96a7.976 7.976 0 0 0 10.032-2.936l6.36-9.816 7.976 8.552a7.992 7.992 0 0 0 10.384 1.136c2.92-2.008 5.536-4.512 7.936-7.28 1.24 33.352 2.248 65.072 3.048 93.536z m8.984-272.752l-8.464 11.44a7.992 7.992 0 0 0 6.424 12.752 8 8 0 0 0 6.44-3.24l8.512-11.512 10.656-3.184c1.72 11.032-2.28 25.008-10.96 36.968a75.688 75.688 0 0 1-9.28 10.408l-12.816 4.376a8 8 0 0 0 5.168 15.144l12.4-4.232c3.928 0.832 7.728 1.864 11.256 3.168 13.592 5.064 24.608 13.928 29.624 23.36l-9.672 2.648-12.624-5.096a8 8 0 1 0-5.984 14.832l12.848 5.184 5.72 8.528c-9.968 3.864-24.088 3.368-37.68-1.696-1.008-0.376-2-0.824-3-1.248l-9.064-12.888a8 8 0 0 0-13.096 9.2l9.264 13.168c0.144 1.048 0.296 2.112 0.392 3.144 1.304 14.792-2.64 28.936-10.056 37.504l-7.536-8.088-0.16-10.296c-0.064-4.416-4.08-7.944-8.12-7.88a8 8 0 0 0-7.88 8.12l0.168 10.944-6.36 9.824c-8.8-7.152-15.152-20.384-16.448-35.176a74.752 74.752 0 0 1 0.408-15.592l9.776-13.176a8 8 0 1 0-12.856-9.528l-9.808 13.224a76.4 76.4 0 0 1-14.448 5.064h-0.008a65.384 65.384 0 0 1-6.52 1.12c-12.144 1.528-23.784-0.504-31.832-5.536l6.936-8.424 13.624-2.448a8 8 0 1 0-2.824-15.752l-14.056 2.52-10.336-4.704c5.92-9.504 18.112-17.48 32.512-20.808 1.96-0.456 3.984-0.744 6-1.032l12.192 4.64a8.008 8.008 0 0 0 5.696-14.96l-12.328-4.696c-0.856-0.968-1.712-1.936-2.512-2.928-9.84-12.384-13.84-24.84-13.904-34.12l8.136 2.56 6.656 11.12a8 8 0 0 0 13.728-8.224l-7.248-12.104-0.752-9.656c9.024 2.168 20.256 8.872 30.096 21.256 2.92 3.672 5.576 7.8 7.984 12.184l1.48 15.784a8 8 0 1 0 15.928-1.488l-1.44-15.36a76.584 76.584 0 0 1 8.024-14.312c8.672-11.952 20.728-20.08 31.744-21.864l0.28 11.064z m-44.96 1.44a87.2 87.2 0 0 0-3.976 5.984 91.176 91.176 0 0 0-2.536-3.336 86.368 86.368 0 0 0-18.448-17.384 7.92 7.92 0 0 0 3.752-3.016l6.36-9.816 7.976 8.552a8 8 0 0 0 10.384 1.136c7.696-5.296 13.624-13.544 17.448-23.368 0.528 6.752 1.024 13.656 1.52 20.576a75.904 75.904 0 0 0-22.48 20.672z m24.296-52.4a76.048 76.048 0 0 0 1.504-15.064c4.984 1.432 9.968 2.352 14.84 2.808a233.416 233.416 0 0 1-16.344 12.256z m56.368-23.248a7.904 7.904 0 0 0 0.144-8.96l-5.68-8.472 9.84-2.696a8 8 0 0 0 5.736-9.256c-1.36-6.928-4.896-13.704-9.976-19.904 9.128-8.64 17.248-18.272 24.416-28.016 0.72 1.264 1.408 2.536 2.264 3.752a215.648 215.648 0 0 1-15.712 28.52c-1.944 2.976-1.696 6.88 0.616 9.584 14.024 16.408 32.856 26.304 53.128 31.976 0.52 4.944 1.608 9.648 3.288 13.992a253.32 253.32 0 0 1-68.064-10.52z m224.72 145.2l-12.624-5.088a8 8 0 1 0-5.984 14.832l12.848 5.184 5.72 8.528c-9.976 3.856-24.104 3.352-37.688-1.696-1-0.376-2-0.816-2.992-1.24l-9.064-12.888a8.008 8.008 0 0 0-13.096 9.2l9.264 13.168c0.144 1.048 0.296 2.112 0.392 3.144 1.304 14.792-2.64 28.928-10.056 37.504l-7.536-8.088-0.16-10.296a8 8 0 0 0-8-7.88h-0.128a8 8 0 0 0-7.872 8.12l0.168 10.936-6.36 9.824c-8.8-7.144-15.144-20.376-16.448-35.168a74.704 74.704 0 0 1 0.408-15.592l9.776-13.176a8 8 0 0 0-12.84-9.528l-9.808 13.216a75.76 75.76 0 0 1-14.456 5.064 65.264 65.264 0 0 1-6.608 1.136c-12.096 1.504-23.704-0.52-31.744-5.544l6.944-8.424 13.616-2.448a8.008 8.008 0 0 0-2.824-15.752l-14.08 2.528-10.336-4.704c5.92-9.504 18.12-17.472 32.52-20.808 1.952-0.456 3.976-0.744 6-1.032l12.184 4.64a8.024 8.024 0 0 0 10.328-4.632 8.016 8.016 0 0 0-4.624-10.328l-12.328-4.696c-0.856-0.968-1.72-1.936-2.512-2.928-9.84-12.392-13.84-24.84-13.904-34.12l8.136 2.568 6.656 11.112a8 8 0 1 0 13.72-8.224l-7.248-12.096-0.752-9.664c9.024 2.168 20.256 8.872 30.104 21.264 2.904 3.656 5.56 7.776 7.976 12.168l1.488 15.8a8 8 0 0 0 15.936-1.496l-1.44-15.36a76.088 76.088 0 0 1 8.032-14.304c8.672-11.952 20.728-20.088 31.744-21.872l0.272 11.032-8.464 11.44a7.992 7.992 0 0 0 6.424 12.752 8 8 0 0 0 6.44-3.24l8.512-11.512 10.656-3.184c1.712 11.024-2.28 25.008-10.96 36.968a75.984 75.984 0 0 1-9.28 10.408l-12.808 4.368a8 8 0 0 0 5.168 15.144l12.4-4.232c3.928 0.832 7.728 1.864 11.256 3.168 13.584 5.064 24.6 13.928 29.616 23.36l-9.68 2.664z" fill="#3A2C60" /><path d="M340.52 157.48c0.064 0.016 0.112 0.064 0.176 0.08 0.096 0.024 0.184 0.024 0.272 0.048 2.248 0.52 4.576 0.88 6.912 1.216 0.584 0.08 1.216 0.248 1.784 0.312v-0.008l0.248 0.04c2.4 0.28 4.832 0.464 7.304 0.544-0.888 2.472-1.664 4.952-2.312 7.432-6.04 23.104-1.256 46.48 12.192 59.544a8 8 0 0 0 10.432 0.616l9.296-7.096 4.624 10.736a8 8 0 0 0 9.4 4.568c16.312-4.328 30.584-19.36 37.688-39.168 17.144 12.304 37.12 16.968 52.344 11.936a8 8 0 0 0 5.24-9.552l-2.496-9.888 10.168 0.776a7.968 7.968 0 0 0 8.52-6.784c2.64-17.512-7.408-38.72-25.592-54.032a85.064 85.064 0 0 0-1.808-1.48c1.336-0.816 2.648-1.656 3.912-2.52 19.696-13.456 31.528-34.064 30.136-52.488a8 8 0 0 0-7.552-7.384l-11.304-0.6 3.544-10.744a8 8 0 0 0-4.136-9.72c-16.648-7.992-40.144-4.464-59.848 8.992-1.96 1.336-3.872 2.768-5.76 4.296a89.632 89.632 0 0 0-1.264-4c-7.632-22.416-23.168-39.624-39.6-43.84a7.984 7.984 0 0 0-9.704 5.648l-2.376 8.728-7.2-5.464a8 8 0 0 0-11.136 1.44c-9.432 12.048-11.84 32.04-6.624 52.296-22.168-1.48-42.72 6.296-53.128 20.328-2.384 3.216-2.024 7.712 0.848 10.504l8.168 7.936-9.784 5.84a8 8 0 0 0-3.248 10.024c6.328 14.712 22.176 26.232 41.664 30.888z m17.68-69.272c1.992 0.232 3.992 0.64 5.992 1.048l9.92 8.488a8 8 0 0 0 10.4-12.16l-10.024-8.568c-0.472-1.2-0.968-2.4-1.376-3.608-5.096-14.976-4.664-28.048-1.608-36.808l6.792 5.16 2.528 12.704a8 8 0 0 0 15.696-3.12l-2.752-13.84 2.544-9.344c7.768 5.072 16.08 15.176 21.176 30.152 1.512 4.44 2.632 9.216 3.416 14.168l-3.92 15.36a8 8 0 1 0 15.504 3.952l3.816-14.936a76.4 76.4 0 0 1 12.384-10.776c12.192-8.336 26.296-11.928 37.256-9.896l-3.456 10.456-11.824 7.92a8.008 8.008 0 0 0 8.912 13.296l11.896-7.968 11.096 0.592c-2.096 10.968-10.568 22.784-22.76 31.112a75.304 75.304 0 0 1-12.256 6.672l-13.528-0.2a8.112 8.112 0 0 0-8.12 7.88 8 8 0 0 0 7.88 8.12l13.112 0.2c3.416 2.104 6.648 4.36 9.52 6.776 11.088 9.336 18.48 21.392 20.016 31.968l-9.992-0.76-10.176-9.048a8 8 0 1 0-10.632 11.96l10.344 9.2 2.512 9.952c-10.688 0.296-23.824-4.952-34.92-14.296-0.824-0.688-1.608-1.44-2.4-2.176l-4.2-15.192a8 8 0 1 0-15.424 4.256l4.28 15.504c-0.216 1.04-0.424 2.088-0.688 3.104-3.76 14.368-12.232 26.352-22.104 31.928l-4.376-10.152 3.32-9.744a8 8 0 1 0-15.144-5.16l-3.528 10.36-9.304 7.112c-5.872-9.696-7.392-24.296-3.64-38.656A74.224 74.224 0 0 1 376 156.656l13.64-9.12a8 8 0 0 0-8.888-13.304l-13.696 9.152a75.088 75.088 0 0 1-15.304-0.104 67.984 67.984 0 0 1-6.52-1.136c-11.944-2.648-22.216-8.48-28.112-15.928l9.368-5.6 13.656 2.288a8 8 0 0 0 2.64-15.776l-14.088-2.36-8.144-7.912c8.8-6.96 22.968-10.344 37.648-8.648zM238.696 918.6a8 8 0 0 0 8-8v-65.688a8 8 0 0 0-16 0v65.688a8 8 0 0 0 8 8z m77.624-78.52a13.424 13.424 0 1 0-26.84 0 13.424 13.424 0 0 0 26.84 0z m183.728-13.424a13.424 13.424 0 1 0 0 26.84 13.424 13.424 0 0 0 0-26.84z m197.056 0a13.424 13.424 0 1 0 0 26.84 13.424 13.424 0 0 0 0-26.84z" fill="#3A2C60" /></svg>